<?xml version="1.0" standalone="no"?>
<!DOCTYPE svg PUBLIC "-//W3C//DTD SVG 20010904//EN"
 "http://www.w3.org/TR/2001/REC-SVG-20010904/DTD/svg10.dtd">
<svg version="1.0" xmlns="http://www.w3.org/2000/svg"
 width="500.000000pt" height="500.000000pt" viewBox="0 0 500.000000 500.000000"
 preserveAspectRatio="xMidYMid meet">
<metadata>
Created by potrace 1.14, written by Peter Selinger 2001-2017
</metadata>
<g transform="translate(0.000000,500.000000) scale(0.100000,-0.100000)"
fill="#000000" stroke="none">
<path d="M1812 3703 c-4 -1 -68 -4 -142 -7 -74 -3 -155 -8 -180 -12 -50 -7
-180 -62 -180 -75 0 -5 -5 -9 -11 -9 -20 0 -139 -136 -139 -159 0 -6 -3 -11
-7 -11 -5 0 -13 -10 -18 -23 -9 -18 -52 -103 -86 -169 -4 -9 -20 -45 -34 -80
-24 -57 -44 -110 -147 -383 -17 -44 -41 -107 -53 -140 -53 -137 -75 -194 -100
-265 -15 -41 -33 -88 -40 -105 -7 -16 -29 -73 -48 -125 -20 -52 -41 -108 -48
-125 -7 -16 -13 -32 -14 -35 -6 -26 -39 -117 -45 -125 -4 -5 -15 -35 -25 -65
-10 -30 -29 -78 -41 -107 -13 -29 -24 -56 -25 -61 -1 -4 -6 -18 -11 -32 -19
-52 -78 -209 -116 -310 -22 -58 -38 -107 -36 -109 4 -5 223 -2 269 3 164 19
232 90 331 351 19 50 37 97 41 105 3 8 7 17 8 20 1 3 6 16 12 30 5 14 29 77
53 140 23 63 46 120 50 125 4 6 11 24 15 40 10 37 9 34 23 68 7 16 12 31 12
34 0 3 7 19 14 36 8 18 56 140 106 272 50 132 93 247 97 255 3 8 5 18 5 23 -1
4 3 7 10 7 6 0 9 3 5 6 -3 4 1 23 9 43 8 20 45 115 81 211 36 96 71 189 79
205 20 43 43 105 41 108 -1 1 8 16 21 34 12 17 22 35 22 41 0 13 79 92 94 93
6 0 20 2 31 5 48 10 216 8 223 -3 4 -6 6 -58 5 -115 -2 -56 -3 -110 -3 -118 0
-8 0 -42 0 -75 0 -33 0 -77 0 -99 -1 -21 1 -40 4 -43 2 -3 1 -15 -4 -28 -5
-13 -6 -26 -3 -29 4 -4 6 -25 5 -49 -4 -97 -3 -129 2 -134 2 -3 1 -15 -4 -28
-5 -13 -6 -26 -2 -29 8 -8 5 -103 -3 -116 -3 -6 -3 -10 2 -10 4 0 8 -54 8
-120 0 -66 -3 -120 -6 -120 -4 0 -4 -15 0 -33 5 -18 5 -41 1 -52 -4 -11 -5
-24 -2 -29 7 -13 8 -136 0 -136 -4 0 -3 -12 1 -27 4 -16 4 -40 0 -55 -4 -16
-4 -28 -1 -28 6 0 7 -125 1 -140 -1 -3 0 -9 1 -15 3 -13 3 -107 0 -120 -1 -5
-1 -13 0 -17 2 -10 2 -76 0 -85 -1 -5 -1 -12 0 -18 5 -22 2 -124 -5 -134 -3
-6 -3 -11 2 -11 7 0 9 -65 3 -95 -2 -6 -1 -14 0 -20 1 -5 2 -36 1 -68 -1 -56
0 -57 27 -58 130 -3 404 0 409 5 8 7 8 2514 1 2522 -5 5 -526 12 -546 7z"/>
<path d="M2579 3695 c-5 -40 -3 -2509 2 -2517 5 -8 269 -14 414 -9 21 1 21 2
20 1119 -1 614 2 1124 6 1133 6 13 25 15 110 12 119 -3 157 -13 197 -54 25
-26 112 -184 112 -204 0 -4 6 -21 14 -38 8 -18 60 -153 117 -302 56 -148 111
-292 122 -320 10 -27 28 -75 38 -105 11 -30 29 -74 40 -97 10 -24 19 -46 19
-50 0 -6 43 -121 107 -283 14 -36 36 -92 48 -125 193 -523 238 -606 349 -655
67 -30 376 -48 376 -22 0 7 -14 50 -32 95 -18 45 -33 87 -34 92 -2 6 -42 111
-89 235 -48 124 -88 230 -89 235 -4 14 -16 46 -27 70 -8 19 -197 519 -225 595
-7 19 -18 49 -25 65 -7 17 -13 33 -14 38 -2 4 -4 9 -5 12 -1 3 -3 8 -5 13 -3
10 -15 44 -25 67 -5 11 -37 94 -70 185 -148 397 -223 547 -331 664 -69 75
-151 122 -248 141 -85 18 -870 26 -872 10z"/>
</g>
</svg>
